<?xml version="1.0" encoding="utf-8"?>
<svg width="512px" height="512px" viewbox="0 0 512 512" version="1.1" xmlns:xlink="http://www.w3.org/1999/xlink" xmlns="http://www.w3.org/2000/svg">
  <g id="Logo-Icon">
    <g id="Group">
      <g id="Group">
        <g id="Group">
          <path d="M256 0C114.837 0 0 114.837 0 256C0 397.163 114.837 512 256 512C397.163 512 512 397.163 512 256C512 114.837 397.163 0 256 0L256 0ZM256 490.667C126.613 490.667 21.333 385.387 21.333 256C21.333 126.613 126.613 21.333 256 21.333C385.387 21.333 490.667 126.613 490.667 256C490.667 385.387 385.387 490.667 256 490.667L256 490.667Z" id="Shape" fill="#01141F" fill-rule="evenodd" stroke="none" />
        </g>
      </g>
      <g id="Group" transform="translate(192.93799 341.333)">
        <g id="Group">
          <path d="M288.897 0L10.667 0C4.77901 0 0 4.77899 0 10.667C0 16.555 4.77901 21.334 10.667 21.334L288.896 21.334C294.784 21.334 299.563 16.555 299.563 10.667C299.563 4.77899 294.785 0 288.897 0L288.897 0Z" id="Shape" fill="#01141F" fill-rule="evenodd" stroke="none" />
        </g>
      </g>
      <g id="Group" transform="translate(138.26495 244.35147)">
        <g id="Group">
          <path d="M157.948 249.772L19.9641 5.41953C17.063 0.278519 10.513 -1.51347 5.41505 1.38753C0.295059 4.28853 -1.51794 10.8165 1.38306 15.9365L139.346 260.289C141.309 263.745 144.935 265.708 148.647 265.708C150.439 265.708 152.231 265.281 153.916 264.321C159.036 261.42 160.85 254.892 157.948 249.772L157.948 249.772Z" id="Shape" fill="#01141F" fill-rule="evenodd" stroke="none" />
        </g>
      </g>
      <g id="Group" transform="translate(52.312927 149.33531)">
        <g id="Group">
          <path d="M155.602 1.36369C150.482 -1.4953 143.954 0.275696 141.074 5.41669L1.38306 252.884C-1.51794 258.047 0.295063 264.532 5.41507 267.433C7.07907 268.35 8.87107 268.798 10.6631 268.798C14.3751 268.798 18.0021 266.835 19.9431 263.379L159.634 15.9117C162.535 10.7497 160.722 4.26469 155.602 1.36369L155.602 1.36369Z" id="Shape" fill="#01141F" fill-rule="evenodd" stroke="none" />
        </g>
      </g>
      <g id="Group" transform="translate(19.968002 149.333)">
        <g id="Group">
          <path d="M288.448 0L10.667 0C4.758 0 0 4.77901 0 10.667C0 16.555 4.779 21.334 10.667 21.334L288.427 21.334C294.315 21.334 299.115 16.555 299.115 10.667C299.115 4.77902 294.336 0 288.448 0L288.448 0Z" id="Shape" fill="#01141F" fill-rule="evenodd" stroke="none" />
        </g>
      </g>
      <g id="Group" transform="translate(214.55295 1.9067993)">
        <g id="Group">
          <path d="M157.884 249.634L19.9641 5.4102C17.041 0.2692 10.513 -1.5018 5.41505 1.3782C0.295059 4.2792 -1.51794 10.8072 1.38306 15.9272L139.282 260.151C141.245 263.607 144.871 265.57 148.583 265.57C150.375 265.57 152.167 265.143 153.852 264.183C158.972 261.282 160.786 254.754 157.884 249.634L157.884 249.634Z" id="Shape" fill="#01141F" fill-rule="evenodd" stroke="none" />
        </g>
      </g>
      <g id="Group" transform="translate(298.66995 94.13878)">
        <g id="Group">
          <path d="M155.837 1.39222C150.738 -1.50878 144.232 0.261223 141.288 5.42422L1.38306 252.613C-1.51794 257.754 0.295044 264.24 5.41507 267.162C7.05807 268.079 8.87106 268.527 10.6631 268.527C14.3751 268.527 17.98 266.586 19.9641 263.13L159.869 15.9412C162.77 10.8002 160.957 4.31422 155.837 1.39222L155.837 1.39222Z" id="Shape" fill="#01141F" fill-rule="evenodd" stroke="none" />
        </g>
      </g>
    </g>
  </g>
</svg>