<?xml version="1.0" encoding="utf-8"?>
<svg width="124px" height="28px" viewbox="0 0 124 28" version="1.1" xmlns:xlink="http://www.w3.org/1999/xlink" xmlns="http://www.w3.org/2000/svg">
  <defs>
    <path d="M0 0L124 0L124 28L0 28L0 0L0 0Z" id="path_1" />
    <clipPath id="mask_1">
      <use xlink:href="#path_1" />
    </clipPath>
  </defs>
  <g id="Logo-Ipsum-4">
    <g id="logo-2-(1)">
      <path d="M0 0L124 0L124 28L0 28L0 0L0 0Z" id="Background" fill="none" fill-rule="evenodd" stroke="none" />
      <g id="Mask-group">
        <path d="M0 0L124 0L124 28L0 28L0 0L0 0Z" id="path_1" fill="none" fill-rule="evenodd" stroke="none" />
        <g clip-path="url(#mask_1)">
          <g id="Group" transform="translate(0.4300003 -0.24000168)">
            <path d="M1.3 0C1.66 0 1.78 0.130001 1.78 0.48L1.78 8.4L5.85 8.4C6.2 8.4 6.33 8.53 6.33 8.88L6.33 9.58C6.33 9.93 6.2 10.06 5.85 10.06L0.490002 10.06C0.140003 10.06 0 9.58 0 9.58L0 0.480003C0 0.130005 0.139999 3.8147e-06 0.490002 3.8147e-06L1.3 0L1.3 0Z" transform="translate(25.219997 9.950001)" id="Shape" fill="#FFFFFF" fill-rule="evenodd" stroke="none" />
            <path d="M3.8147e-06 3.7C3.8147e-06 1.39 1.46 0 4 0C6.53999 0 8 1.39 8 3.7L8 6.78C8 9.09 6.53 10.48 4 10.48C1.47 10.48 0 9.09 0 6.78L3.8147e-06 3.7L3.8147e-06 3.7ZM6.32001 3.7C6.32001 2.4 5.51001 1.7 4.05001 1.7C2.59001 1.7 1.79001 2.41 1.79001 3.7L1.79001 6.8C1.79001 8.11 2.59001 8.8 4.05001 8.8C5.51001 8.8 6.32001 8.08 6.32001 6.8L6.32001 3.7L6.32001 3.7Z" transform="translate(35.1 9.740002)" id="Shape#1" fill="#FFFFFF" fill-rule="evenodd" stroke="none" />
            <path d="M7.58 4.8C7.97 4.8 8.06001 4.93 8.06001 5.28L8.06001 7.18C8.08145 8.08643 7.69181 8.95393 7 9.54C6.1517 10.2155 5.08211 10.5506 4 10.48C1.41 10.48 0 9.09 0 6.78L0 3.68C0 1.4 1.46 0 4 0C6 0 7.3 0.790001 7.85 2.37C7.91238 2.49037 7.91434 2.63311 7.85529 2.75514C7.79623 2.87718 7.68309 2.96422 7.54999 2.99L6.77 3.26C6.43 3.38 6.28999 3.31 6.17 2.96C5.82922 2.08128 4.93555 1.54591 4 1.66C2.53 1.66 1.73 2.37 1.73 3.66L1.73 6.84C1.73 8.15 2.54 8.84 4 8.84C5.46 8.84 6.36 8.17 6.36 7.19L6.36 6.45L4.19 6.45C3.83 6.45 3.7 6.31 3.7 5.96L3.7 5.28C3.7 4.93 3.83 4.8 4.19 4.8L7.58 4.8L7.58 4.8Z" transform="translate(47.43 9.700001)" id="Shape#2" fill="#FFFFFF" fill-rule="evenodd" stroke="none" />
            <path d="M0 3.7C0 1.39 1.46 0 4 0C6.54 0 8 1.39 8 3.7L8 6.78C8 9.09 6.53 10.48 4 10.48C1.47 10.48 0 9.09 0 6.78L0 3.7L0 3.7ZM6.31 3.7C6.31 2.4 5.5 1.7 4.05 1.7C2.59999 1.7 1.78 2.41 1.78 3.7L1.78 6.8C1.78 8.11 2.59 8.8 4.05 8.8C5.50999 8.8 6.31 8.08 6.31 6.8L6.31 3.7L6.31 3.7Z" transform="translate(59.620003 9.740002)" id="Shape#3" fill="#FFFFFF" fill-rule="evenodd" stroke="none" />
            <path d="M0 0.290001C0 0.0699997 0.0699997 0 0.290001 0L0.75 0C0.970001 0 1.02 0.0699997 1.02 0.290001L1.02 9.77C1.02 9.99 1.02 10.06 0.75 10.06L0.290001 10.06C0.0699997 10.06 0 9.99 0 9.77L0 0.290001L0 0.290001Z" transform="translate(72.33 9.950001)" id="Shape#4" fill="#FFFFFF" fill-rule="evenodd" stroke="none" />
            <path d="M4.02 9.53674e-07C5.14233 -0.000769615 6.17973 0.597547 6.74112 1.56939C7.30251 2.54123 7.3025 3.73881 6.7411 4.71064C6.17971 5.68247 5.1423 6.28078 4.01997 6.28L1.02 6.28L1.02 9.77C1.02 9.99 0.970001 10.06 0.760002 10.06L0.290001 10.06C0.0800018 10.06 0 9.99 0 9.77L0 0.290002C0 0.0700006 0.0800018 9.53674e-07 0.290001 9.53674e-07L4.02 9.53674e-07L4.02 9.53674e-07ZM3.93001 5.29C5.13399 5.29 6.11001 4.31398 6.11001 3.11C6.11001 1.90602 5.13399 0.930001 3.93001 0.930001L0.930008 0.930001L0.930008 5.29L3.93001 5.29L3.93001 5.29Z" transform="translate(78.439995 9.95)" id="Shape#5" fill="#FFFFFF" fill-rule="evenodd" stroke="none" />
            <path d="M3.83802 0.0219116C5.42346 -0.153057 6.93581 0.733208 7.55802 2.20191C7.63802 2.36191 7.55802 2.49191 7.39802 2.57191L6.95802 2.77191C6.77802 2.84191 6.70802 2.83191 6.59801 2.64191C6.13314 1.55269 5.01694 0.889439 3.83801 1.00191C2.14801 1.00191 1.22801 1.67191 1.22801 2.87191C1.20774 3.63024 1.7497 4.28741 2.49801 4.41191C3.03585 4.58731 3.59351 4.69481 4.15801 4.73191C4.84136 4.76835 5.51545 4.90654 6.15802 5.14191C7.17337 5.46317 7.82443 6.45228 7.71802 7.51191C7.71802 9.38191 6.35802 10.5119 3.85802 10.5119C2.16833 10.7052 0.572899 9.69296 0.0280151 8.08191C-0.00770569 8.00974 -0.00934601 7.92539 0.0235367 7.85188C0.0564194 7.77837 0.120399 7.72338 0.198013 7.70191L0.638016 7.54191C0.708092 7.51328 0.786972 7.51539 0.855415 7.54771C0.923866 7.58003 0.975601 7.63961 0.998016 7.71191C1.45705 8.8712 2.61423 9.59949 3.85802 9.51191C5.74802 9.51191 6.67802 8.85191 6.67802 7.51191C6.71436 6.78451 6.21954 6.13742 5.50802 5.98191C4.99059 5.82757 4.45704 5.73361 3.91801 5.70192L2.83802 5.56192C2.50003 5.49017 2.1662 5.40004 1.83803 5.29192C1.51386 5.19401 1.21166 5.03442 0.948013 4.82191C0.411018 4.33559 0.117905 3.63578 0.148026 2.91192C0.218018 1.16191 1.52802 0.0219116 3.83802 0.0219116L3.83802 0.0219116L3.83802 0.0219116Z" transform="translate(89.57198 9.728088)" id="Shape#6" fill="#FFFFFF" fill-rule="evenodd" stroke="none" />
            <path d="M1.03 6.64C1.11815 8.10799 2.33437 9.25336 3.80501 9.25336C5.27565 9.25336 6.49187 8.10799 6.58 6.64L6.58 0.290001C6.58 0.0699997 6.65001 0 6.87 0L7.33 0C7.55 0 7.62 0.0699997 7.62 0.290001L7.62 6.63C7.62 8.9 6.28 10.27 3.81 10.27C1.34 10.27 0 8.9 0 6.63L0 0.290001C0 0.0699997 0.0700073 0 0.279999 0L0.75 0C0.960007 0 1.03 0.0699997 1.03 0.290001L1.03 6.64L1.03 6.64Z" transform="translate(101.65 9.950001)" id="Shape#7" fill="#FFFFFF" fill-rule="evenodd" stroke="none" />
            <path d="M8.82996 0.00173473C9.04996 0.00173473 9.11995 0.0717344 9.11995 0.291736L9.11995 9.77174C9.11995 9.99174 9.04994 10.0617 8.82996 10.0617L8.40996 10.0617C8.19995 10.0617 8.12996 9.99174 8.12996 9.77174L8.12996 4.00174C8.12996 3.15779 8.18695 2.31921 8.30055 1.48739L8.23996 1.49174C7.92754 2.25244 7.56335 2.99084 7.14996 3.70174L4.99997 7.49174C4.94614 7.62634 4.81491 7.71382 4.66997 7.71174L4.38997 7.71174C4.243 7.71244 4.10954 7.62609 4.04997 7.49174L1.86998 3.66174C1.4828 2.961 1.14854 2.2323 0.86998 1.48175L0.809982 1.48174C0.91243 2.32125 0.965866 3.16601 0.969986 4.01173L0.969986 9.77174C0.969986 9.99174 0.899979 10.0617 0.679993 10.0617L0.289993 10.0617C0.0699921 10.0617 0 9.99174 0 9.77174L0 0.291736C0 0.0717344 0.0700073 0.00173473 0.289993 0.00173473L0.649994 0.00173473C0.818558 -0.0139742 0.97876 0.0781431 1.04999 0.231734L4.54996 6.45174L8.02995 0.291736C8.13995 0.0817366 8.19995 0.051734 8.41995 0.051734L8.82996 0.00173473L8.82996 0.00173473Z" transform="translate(114.24004 9.948266)" id="Shape#8" fill="#FFFFFF" fill-rule="evenodd" stroke="none" />
            <path d="M8.73 17.79L8.73 25.02C8.73 25.5971 8.26213 26.065 7.685 26.065C7.10786 26.065 6.64 25.5971 6.64 25.02L6.64 17.8C6.93096 18.0125 7.27983 18.1311 7.64 18.14C8.03264 18.1512 8.41729 18.0277 8.73 17.79L8.73 17.79L8.73 17.79ZM17.63 15.7C17.0777 15.7 16.63 16.1477 16.63 16.7L16.63 17.96C16.63 18.5371 17.0979 19.005 17.675 19.005C18.2521 19.005 18.72 18.5371 18.72 17.96L18.72 16.75C18.7357 16.4599 18.6245 16.1772 18.4152 15.9756C18.206 15.774 17.9194 15.6734 17.63 15.7L17.63 15.7L17.63 15.7ZM4.37 20.53C4.01017 20.5192 3.66183 20.4008 3.37 20.19L3.37 27.44C3.37 28.0199 3.8401 28.49 4.42 28.49C4.9999 28.49 5.47 28.0199 5.47 27.44L5.47 20.24C5.14346 20.4511 4.75817 20.5527 4.37 20.53L4.37 20.53L4.37 20.53ZM14.37 13.53C14.0962 13.5163 13.8288 13.6156 13.6303 13.8046C13.4319 13.9937 13.3197 14.2559 13.32 14.53L13.32 20.1C13.3196 20.4754 13.5196 20.8225 13.8447 21.0104C14.1697 21.1982 14.5703 21.1982 14.8954 21.0104C15.2204 20.8225 15.4204 20.4754 15.42 20.1L15.42 14.6C15.4361 14.3079 15.3236 14.0234 15.112 13.8215C14.9004 13.6195 14.611 13.5203 14.32 13.55L14.37 13.53L14.37 13.53ZM11.05 15.67C10.6734 15.6674 10.3067 15.5487 10 15.33L10 22.6C9.99957 22.9754 10.1996 23.3225 10.5247 23.5104C10.8497 23.6982 11.2503 23.6982 11.5754 23.5104C11.9004 23.3225 12.1004 22.9754 12.1 22.6L12.1 15.34C11.7827 15.5763 11.3955 15.6995 11 15.69L11.05 15.67L11.05 15.67ZM2.1 21.24L2.1 0.93C2.09452 0.414757 1.67527 -3.43323e-05 1.16 0L0.940001 0C0.424732 -3.05176e-05 0.00548172 0.414761 0 0.93L0 21.24C0.000179291 21.7595 0.421177 22.1802 0.940325 22.18L1.16 22.18C1.67915 22.18 2.1 21.7592 2.1 21.24L2.1 21.24L2.1 21.24ZM4.48 19.76L4.26 19.76C3.74085 19.76 3.32 19.3392 3.32 18.82L3.32 3.35C3.32548 2.83476 3.74474 2.41997 4.26 2.42L4.48 2.42C4.99527 2.41997 5.41452 2.83476 5.41999 3.35L5.42 18.84C5.42018 19.3588 4.99947 19.7798 4.48033 19.78L4.48 19.76L4.48 19.76ZM7.79 17.38L7.56 17.38C7.04638 17.38 6.63 16.9636 6.63 16.45L6.63 5.75C6.62733 5.50162 6.72413 5.2625 6.89883 5.08592C7.07353 4.90934 7.31161 4.80999 7.56 4.81L7.79 4.81C8.30524 4.81549 8.72003 5.23473 8.72 5.75L8.72 16.45C8.72018 16.9633 8.30395 17.3798 7.79032 17.38L7.79 17.38L7.79 17.38ZM11.1 14.93L10.89 14.93C10.3747 14.93 9.95548 14.5152 9.95 14L9.95 8.24C9.9334 7.98048 10.0251 7.72567 10.2032 7.53619C10.3813 7.3467 10.6299 7.23947 10.89 7.24L11.11 7.24C11.6292 7.24001 12.05 7.66085 12.05 8.18L12.05 13.98C12.0527 14.231 11.9548 14.4727 11.7782 14.6511C11.6017 14.8296 11.361 14.93 11.11 14.93L11.1 14.93L11.1 14.93ZM14.42 12.78L14.2 12.78C13.6809 12.78 13.26 12.3591 13.26 11.84L13.26 10.35C13.2655 9.83476 13.6847 9.41997 14.2 9.42L14.42 9.42C14.9353 9.41997 15.3545 9.83476 15.36 10.35L15.36 11.84C15.36 12.3553 14.9452 12.7746 14.4299 12.78L14.42 12.78L14.42 12.78Z" id="Shape#9" fill="#FFFFFF" fill-rule="evenodd" stroke="none" />
          </g>
        </g>
      </g>
    </g>
  </g>
</svg>