<?xml version="1.0" encoding="utf-8"?>
<svg width="128px" height="33px" viewbox="0 0 128 33" version="1.1" xmlns:xlink="http://www.w3.org/1999/xlink" xmlns="http://www.w3.org/2000/svg">
  <defs>
    <path d="M0 0L128 0L128 33L0 33L0 0L0 0Z" id="path_1" />
    <clipPath id="mask_1">
      <use xlink:href="#path_1" />
    </clipPath>
  </defs>
  <g id="Logo-Ipsum-2">
    <g id="logo-5">
      <path d="M0 0L128 0L128 33L0 33L0 0L0 0Z" id="Background" fill="none" fill-rule="evenodd" stroke="none" />
      <g id="Mask-group">
        <path d="M0 0L128 0L128 33L0 33L0 0L0 0Z" id="path_1" fill="none" fill-rule="evenodd" stroke="none" />
        <g clip-path="url(#mask_1)">
          <g id="Group" transform="translate(0.4496994 -0.104400635)">
            <path d="M0 0.131297L2.02 0.131297L2.02 14.1905L8.08 14.1905L8.08 16.2105L0 16.2105L0 0.131297L0 0.131297ZM14.3723 0.131297C17.7192 0.131297 20.4323 2.84445 20.4323 6.1913C20.4323 9.53815 17.7192 12.2513 14.3723 12.2513C11.0255 12.2513 8.3123 9.53815 8.3123 6.1913C8.3123 2.84445 11.0255 0.131297 14.3723 0.131297L14.3723 0.131297L14.3723 0.131297ZM14.3723 10.2313C16.6035 10.2313 18.4123 8.42253 18.4123 6.1913C18.4123 3.96007 16.6035 2.1513 14.3723 2.1513C12.1411 2.1513 10.3323 3.96007 10.3323 6.1913C10.3434 8.41464 12.1489 10.2111 14.3723 10.2111L14.3723 10.2313L14.3723 10.2313ZM10.3323 14.2107L18.4123 14.2107L18.4123 16.2307L10.3323 16.2307L10.3323 14.2107L10.3323 14.2107ZM36.1883 16.2307L34.1683 16.2307L34.1683 14.7864C32.8656 15.6982 31.3144 16.1883 29.7243 16.1903C25.9875 16.2153 22.7211 13.6747 21.8256 10.0467C20.9302 6.41867 22.6394 2.64995 25.9586 0.933401C29.2779 -0.783149 33.3412 0.000346659 35.7843 2.828L34.2996 4.1511C32.4421 2.07441 29.408 1.53184 26.9459 2.8361C24.4839 4.14036 23.2284 6.95534 23.9031 9.6586C24.5778 12.3619 27.0088 14.2567 29.795 14.2511C31.4935 14.2546 33.109 13.5169 34.2188 12.2311L28.7648 12.2311L28.7648 10.2111L36.2085 10.2111L36.1883 16.2307L36.1883 16.2307ZM43.6219 0.171698C46.9687 0.171698 49.6819 2.88485 49.6819 6.2317C49.6819 9.57854 46.9687 12.2917 43.6219 12.2917C40.2751 12.2917 37.5619 9.57854 37.5619 6.2317C37.5511 4.61396 38.1876 3.0591 39.3296 1.91329C40.4716 0.767479 42.0244 0.125861 43.6421 0.131297L43.6219 0.171698L43.6219 0.171698ZM43.6219 10.2717C45.8531 10.2717 47.6619 8.46293 47.6619 6.2317C47.6619 4.00047 45.8531 2.1917 43.6219 2.1917C41.3907 2.1917 39.5819 4.00047 39.5819 6.2317C39.6151 8.44711 41.4265 10.2224 43.6421 10.2111L43.6219 10.2717L43.6219 10.2717ZM39.5819 14.2511L47.6619 14.2511L47.6619 16.2711L39.5819 16.2711L39.5819 14.2511L39.5819 14.2511ZM51.8332 0.131297L53.8532 0.131297L53.8532 16.1903L51.8332 16.1903L51.8332 0.131297L51.8332 0.131297ZM56.6509 0.131297L58.6709 0.131297C58.775 0.120263 58.8799 0.120263 58.984 0.131297C61.2922 -0.119118 63.5406 0.971302 64.7732 2.93891C66.0057 4.90652 66.0057 7.40538 64.7732 9.37299C63.5406 11.3406 61.2922 12.431 58.984 12.1806L58.6709 12.1806L58.6709 16.2206L56.6509 16.2206L56.6509 0.131297L56.6509 0.131297ZM58.6709 2.1513L58.6709 10.1404L58.984 10.1404C60.5418 10.3478 62.0785 9.63311 62.9235 8.30812C63.7685 6.98314 63.7685 5.28836 62.9235 3.96337C62.0785 2.63839 60.5418 1.92366 58.984 2.1311C58.874 2.14255 58.7656 2.16626 58.6608 2.2018L58.6709 2.1513L58.6709 2.1513ZM73.225 1.2928L71.7302 2.4745C71.2037 1.92436 70.4061 1.72909 69.685 1.9738C68.9639 2.2185 68.4499 2.85883 68.3669 3.6158L68.3669 3.7774C68.3669 4.6662 68.983 5.2621 70.1849 5.3429C74.8107 5.6257 76.9317 7.7972 76.9317 10.6656L76.9317 10.8474C76.6878 13.1658 75.1144 15.1291 72.9048 15.8721C70.6952 16.6152 68.2552 16.0015 66.66 14.3016L68.2053 13.1098C68.9333 13.89 69.9673 14.311 71.0333 14.2612C73.0545 14.3677 74.8005 12.8623 74.9925 10.8474L74.9925 10.706C74.9925 8.0093 72.3463 7.5144 70.0536 7.2922C67.9326 7.0902 66.4075 5.7671 66.4075 3.8582L66.4075 3.7774C66.5628 1.71349 68.3076 0.132954 70.3768 0.1818C71.4445 0.150276 72.4756 0.57227 73.2149 1.3433L73.225 1.2928L73.225 1.2928ZM84.84 14.14C87.3549 14.14 89.3446 11.4231 89.3446 8.08L89.3446 0L91.3646 0L91.3646 8.08C91.3646 12.524 88.4558 16.1095 84.8804 16.1095C81.305 16.1095 78.3962 12.524 78.3962 8.08L78.3962 0L80.4162 0L80.4162 8.08C80.3354 11.4736 82.3251 14.1905 84.8299 14.1905L84.84 14.14L84.84 14.14ZM106.868 16.16L104.848 16.16L104.848 6.161L100.192 12.221L95.5359 6.161L95.5359 16.1903L93.5159 16.1903L93.5159 0.131297L100.182 8.9082L106.848 0.131297L106.868 16.16L106.868 16.16Z" transform="translate(20.6848 7.7770042)" id="Shape" fill="#FFFFFF" fill-rule="evenodd" stroke="none" />
            <path d="M10.9888 5.4944C10.9888 2.45993 8.52887 0 5.4944 0C2.45993 0 0 2.45993 0 5.4944L0 22.1089L4.5248 25.351L4.5248 33.2492L6.464 33.2492L6.464 25.351L10.9888 22.1089L10.9888 5.4944L10.9888 5.4944ZM9.0496 14.7864L6.464 17.372L6.464 14.948L9.0496 12.3624L9.0496 14.7864L9.0496 14.7864ZM1.9796 12.3624L4.5652 14.948L4.5652 17.372L1.9796 14.7864L1.9796 12.3624L1.9796 12.3624ZM9.0496 9.6152L5.4944 13.1704L1.9392 9.5344L1.9392 7.1104L5.4944 10.6656L9.04959 7.1104L9.0496 9.6152L9.0496 9.6152ZM5.4944 1.9392C7.10142 1.94631 8.50624 3.02472 8.9284 4.5753L5.4944 7.9992L2.06041 4.5753C2.46729 3.00869 3.87586 1.91083 5.4944 1.8988L5.4944 1.9392L5.4944 1.9392ZM1.9392 21.1292L1.9392 17.4932L4.5248 20.0788L4.5248 22.9674L1.9392 21.1292L1.9392 21.1292ZM6.464 22.9775L6.464 20.0788L9.0496 17.4932L9.0496 21.1191L6.464 22.9775L6.464 22.9775Z" id="Shape#1" fill="#FFFFFF" fill-rule="evenodd" stroke="none" />
          </g>
        </g>
      </g>
    </g>
  </g>
</svg>