<?xml version="1.0" encoding="utf-8"?>
<svg width="133px" height="12px" viewbox="0 0 133 12" version="1.1" xmlns:xlink="http://www.w3.org/1999/xlink" xmlns="http://www.w3.org/2000/svg">
  <defs>
    <path d="M0 0L133 0L133 12L0 12L0 0L0 0Z" id="path_1" />
    <clipPath id="mask_1">
      <use xlink:href="#path_1" />
    </clipPath>
  </defs>
  <g id="Logo-Ipsum-3">
    <g id="logo-9">
      <path d="M0 0L133 0L133 12L0 12L0 0L0 0Z" id="Background" fill="none" fill-rule="evenodd" stroke="none" />
      <g id="Mask-group">
        <path d="M0 0L133 0L133 12L0 12L0 0L0 0Z" id="path_1" fill="none" fill-rule="evenodd" stroke="none" />
        <g clip-path="url(#mask_1)">
          <g id="Group" transform="translate(-0.38716125 -0.46173)">
            <path d="M66.5179 12.4522L61.9275 12.4522L61.9275 0.180214L66.5179 0.180214L66.5179 12.4522L66.5179 12.4522ZM62.3758 12.0039L66.0696 12.0039L66.0696 0.62849L62.3758 0.62849L62.3758 12.0039L62.3758 12.0039ZM72.9049 12.4522L68.4069 12.4522L68.4069 0.180214L77.8046 0.180214C79.1508 0.0711926 80.4915 0.449152 81.5826 1.24532C82.5347 2.1164 83.0252 3.38227 82.9086 4.66746C82.9756 5.76302 82.627 6.84355 81.9323 7.69332C81.1101 8.63649 79.742 9.12242 77.8664 9.13946C77.3939 9.15201 73.8534 9.13946 72.9076 9.13946L72.9049 12.4522L72.9049 12.4522ZM68.8525 12.0039L72.4566 12.0039L72.4566 8.6867L72.6816 8.6867C72.7274 8.6867 77.324 8.70104 77.8557 8.6867C79.603 8.67146 80.8591 8.23842 81.5934 7.39297L81.5934 7.39297C82.2118 6.62414 82.519 5.65111 82.4541 4.66656C82.5658 3.51511 82.1349 2.37731 81.2885 1.5887C80.2769 0.86258 79.0391 0.521732 77.7983 0.627593L68.8552 0.627593L68.8525 12.0039L68.8525 12.0039ZM76.8524 6.38256L72.4261 6.38256L72.4261 3.042L76.882 3.042C77.524 2.9533 78.1667 3.19922 78.5854 3.6938C78.7724 4.00485 78.8605 4.36531 78.8383 4.72753C78.8551 5.06383 78.7824 5.39857 78.6276 5.69759C78.1952 6.21884 77.5225 6.47707 76.8524 6.37897L76.8524 6.38256L76.8524 6.38256ZM72.8744 5.93428L76.8524 5.93428C77.5876 5.93428 78.043 5.78097 78.2448 5.46539C78.3559 5.23601 78.4062 4.98194 78.3909 4.72753C78.4105 4.4604 78.3526 4.1933 78.2241 3.95828L78.2188 3.95021C78.0054 3.63642 77.5813 3.49028 76.882 3.49028L72.8744 3.49028L72.8744 5.93428L72.8744 5.93428ZM91.0896 12.6333C87.0641 12.6333 84.6614 11.6337 83.746 9.57787C83.5962 9.1808 83.4945 8.76724 83.443 8.34601L83.4035 8.0878L88.1929 8.0878L88.2243 8.27607C88.2611 8.46725 88.3422 8.64717 88.461 8.80145C88.6501 9.03007 89.2813 9.4138 91.3756 9.4138C93.8932 9.4138 93.8932 8.9718 93.8932 8.73421C93.8932 8.33345 93.6018 8.19628 91.5487 7.97752L91.1587 7.94076C90.3859 7.86814 89.4086 7.7758 88.9621 7.73724C85.1966 7.39655 83.5156 6.22655 83.5156 3.94483C83.5156 1.54835 86.3765 0 90.8046 0C94.4168 0 96.7442 0.952138 97.7206 2.83221C97.9522 3.26953 98.1078 3.7431 98.1805 4.23262L98.2119 4.48455L93.4171 4.48455L93.3974 4.28193C93.3786 4.12358 93.3109 3.97503 93.2037 3.85696C93.0244 3.61669 92.4578 3.21952 90.6988 3.21952C88.539 3.21952 88.2413 3.49565 88.2413 3.79331C88.2413 4.19048 88.9236 4.33124 91.1103 4.56524C92.0221 4.63965 93.4879 4.79027 93.99 4.85124C97.1468 5.19372 98.5552 6.33503 98.5552 8.5531C98.5561 10.4135 97.2606 12.6333 91.0896 12.6333L91.0896 12.6333L91.0896 12.6333ZM83.9271 8.53608C83.972 8.83173 84.0493 9.12156 84.1575 9.40035C84.9913 11.2732 87.2596 12.185 91.0897 12.185C94.2921 12.185 98.1105 11.5575 98.1105 8.55311C98.1105 6.58697 96.8643 5.61332 93.9425 5.29684C93.4404 5.23587 91.9835 5.08615 91.0735 5.01084C88.7425 4.75801 87.7948 4.62353 87.7948 3.79332C87.7948 2.93442 88.816 2.77125 90.7006 2.77125C92.1897 2.77125 93.1517 3.04021 93.5597 3.58263C93.6709 3.71626 93.755 3.87037 93.8071 4.03629L97.6928 4.03628C97.6146 3.68954 97.491 3.35463 97.3252 3.04021C96.4286 1.31973 94.2383 0.448283 90.8064 0.448283C86.6508 0.448283 83.9657 1.8209 83.9657 3.94484C83.9657 5.97104 85.4728 6.97159 89.0034 7.29077C89.4517 7.32932 90.428 7.42166 91.2026 7.49518L91.5953 7.53194C93.5023 7.73277 94.3433 7.85828 94.3433 8.73421C94.3433 9.67739 93.2557 9.86208 91.3775 9.86208C89.6399 9.86208 88.5426 9.60118 88.1185 9.08746C87.9877 8.92364 87.8892 8.73655 87.828 8.53607L83.9271 8.53608L83.9271 8.53608ZM107.072 12.6181C102.392 12.6181 99.8104 10.7255 99.8104 7.28808L99.8104 0.180214L104.34 0.180214L104.34 7.28808C104.34 8.46704 105.395 9.14304 107.234 9.14304C108.991 9.14304 110.082 8.43746 110.082 7.30332L110.082 0.180214L114.565 0.180214L114.565 7.66463C114.569 10.8124 111.836 12.6181 107.07 12.6181L107.072 12.6181L107.072 12.6181ZM100.259 0.62849L100.259 7.28808C100.259 11.5359 104.524 12.1698 107.072 12.1698C109.707 12.1698 114.124 11.5844 114.124 7.66463L114.124 0.62849L110.538 0.62849L110.538 7.30332C110.538 8.69297 109.243 9.59132 107.241 9.59132C105.148 9.59132 103.899 8.73063 103.899 7.28807L103.899 0.62849L100.259 0.62849L100.259 0.62849ZM133.561 12.4522L129.286 12.4522L129.286 6.91152L126.862 12.4522L123.133 12.4522L120.734 6.92228L120.734 12.4522L116.444 12.4522L116.444 0.180214L122.087 0.180214L125.019 6.94649L128.092 0.180214L133.566 0.180214L133.561 12.4522L133.561 12.4522ZM129.735 12.0039L133.113 12.0039L133.113 0.62849L128.377 0.62849L125.004 8.05104L121.789 0.62849L116.889 0.62849L116.889 12.0039L120.282 12.0039L120.282 4.76518L123.42 12.0066L126.558 12.0066L129.729 4.77594L129.735 12.0039L129.735 12.0039ZM4.0829 0.404351L0 0.404351L0 12.2281L11.2822 12.2281L11.2822 9.08028L4.0829 9.08028L4.0829 0.404351L4.0829 0.404351ZM19.5233 0.135387C14.3117 0.135387 11.5709 2.60539 11.5709 6.23194C11.5709 10.3292 14.4479 12.4074 19.5233 12.4074C25.1106 12.4074 27.4605 9.99746 27.4605 6.23194C27.4605 2.40815 24.8094 0.133592 19.5233 0.133592L19.5233 0.135387L19.5233 0.135387ZM19.5081 3.20787C19.8629 3.2062 20.2174 3.22687 20.5696 3.26973L16.0052 7.83408C15.7892 7.34553 15.6839 6.81527 15.6968 6.28125C15.6968 4.42628 16.631 3.20608 19.5081 3.20608L19.5081 3.20787L19.5081 3.20787ZM19.5233 9.38332C19.1815 9.38483 18.8399 9.36567 18.5004 9.32594L23.0728 4.75353C23.2807 5.23399 23.3802 5.75438 23.3641 6.27767C23.3641 8.08242 22.5034 9.38152 19.5233 9.38152L19.5233 9.38332L19.5233 9.38332ZM35.5501 7.76953L39.7522 7.76953C39.6904 8.06115 39.5615 8.33435 39.3757 8.56746C38.5045 9.2772 37.3926 9.62255 36.2727 9.53125C35.1321 9.65328 33.9947 9.27414 33.1554 8.49215C32.7305 7.86895 32.5287 7.12052 32.5825 6.36822C32.5138 5.57992 32.7332 4.79344 33.2002 4.15463C33.7874 3.49118 34.7817 3.20518 36.2431 3.20518C37.173 3.12819 38.1016 3.36699 38.879 3.88297C39.124 4.07759 39.3071 4.33925 39.4061 4.63608L43.3034 4.63608C43.2751 4.14698 43.1575 3.6672 42.9565 3.22042C42.0232 1.32243 39.8535 0.192773 36.1642 0.192773C32.9554 0.192773 30.8019 1.17181 29.6122 2.64843C28.8265 3.71475 28.4231 5.01482 28.4673 6.33863C28.4165 7.69237 28.8094 9.02565 29.5862 10.1355C30.7616 11.6597 32.855 12.4092 35.3708 12.4092C37.0433 12.5258 38.7044 12.0574 40.0696 11.0841L40.1754 12.2281L43.4128 12.2281L43.4128 5.22421L35.5501 5.22421L35.5501 7.76953L35.5501 7.76953ZM52.6016 0.132699C47.3908 0.132699 44.6492 2.6027 44.6492 6.22925C44.6492 10.3265 47.5253 12.4047 52.6016 12.4047C58.1898 12.4047 60.5396 9.99477 60.5396 6.22925C60.5396 2.40815 57.8885 0.133592 52.6016 0.133592L52.6016 0.132699L52.6016 0.132699ZM52.5872 3.20518C52.9327 3.20416 53.2779 3.22392 53.6209 3.26435L49.0745 7.81346C48.8653 7.33035 48.7634 6.80757 48.776 6.28125C48.7724 4.42628 49.7102 3.20608 52.5872 3.20608L52.5872 3.20518L52.5872 3.20518ZM52.6016 9.38063C52.2507 9.38211 51.9001 9.36175 51.5517 9.31966L56.1394 4.73111C56.3552 5.21797 56.4584 5.7472 56.4415 6.27946C56.4433 8.08242 55.5862 9.38153 52.6016 9.38153L52.6016 9.38063L52.6016 9.38063Z" id="Shape" fill="#FFFFFF" fill-rule="evenodd" stroke="none" />
          </g>
        </g>
      </g>
    </g>
  </g>
</svg>