<?xml version="1.0" encoding="utf-8"?>
<svg width="136px" height="27px" viewbox="0 0 136 27" version="1.1" xmlns:xlink="http://www.w3.org/1999/xlink" xmlns="http://www.w3.org/2000/svg">
  <defs>
    <path d="M0 0L136 0L136 27L0 27L0 0L0 0L0 0Z" id="path_1" />
    <clipPath id="mask_1">
      <use xlink:href="#path_1" />
    </clipPath>
  </defs>
  <g id="Logo-Ipsum-1">
    <g id="Logo-Ipsum-1">
      <g id="logo-8">
        <path d="M0 0L136 0L136 27L0 27L0 0L0 0L0 0Z" id="Background" fill="none" fill-rule="evenodd" stroke="none" />
        <g id="Mask-group">
          <path d="M0 0L136 0L136 27L0 27L0 0L0 0L0 0Z" id="path_1#1" fill="none" fill-rule="evenodd" stroke="none" />
          <g id="Mask-group">
            <path d="M0 0L136 0L136 27L0 27L0 0L0 0L0 0Z" id="path_1" fill="none" fill-rule="evenodd" stroke="none" />
            <g clip-path="url(#mask_1)">
              <g id="Group" transform="translate(0.29170984 0.6679224)">
                <g id="Group">
                  <path d="M9.75897 1.08032C8.99169 1.85228 8.60826 2.92596 8.71297 4.00932L8.69497 3.99132C8.80258 5.26621 8.34272 6.5237 7.43803 7.42839C6.53335 8.33308 5.27585 8.79294 4.00096 8.68532L4.01897 8.70332C2.47537 8.55965 1.00742 9.39928 0.348673 10.8026C-0.310072 12.206 -0.0181561 13.8717 1.07854 14.9674C2.17524 16.0631 3.84123 16.3535 5.24398 15.6935C6.64673 15.0335 7.48503 13.5648 7.33997 12.0213L7.35897 12.0393C7.25135 10.7644 7.71122 9.50695 8.6159 8.60226C9.52059 7.69757 10.7781 7.23771 12.053 7.34533L12.034 7.32732C13.7304 7.47989 15.309 6.44548 15.8463 4.82915C16.3837 3.21282 15.7386 1.43919 14.2885 0.545696C12.8383 -0.347797 10.9641 -0.126427 9.76197 1.08032L9.75897 1.08032L9.75897 1.08032L9.75897 1.08032Z" transform="translate(10.590309 10.622754)" id="Shape" fill="#FFFFFF" fill-rule="evenodd" stroke="none" />
                  <path d="M12.053 16.026L12.034 16.008C13.118 16.1172 14.1938 15.7339 14.9645 14.9638C15.7353 14.1936 16.1194 13.1181 16.011 12.034L16.03 12.052C15.9224 10.7771 16.3822 9.51962 17.2869 8.61493C18.1916 7.71024 19.4491 7.25038 20.724 7.35799L20.705 7.33999C22.2487 7.48496 23.7176 6.64626 24.3773 5.2431C25.0371 3.83995 24.746 2.17375 23.6496 1.07737C22.5532 -0.0190159 20.887 -0.310077 19.4839 0.349671C18.0807 1.00942 17.242 2.47827 17.387 4.02199L17.369 4.00299C17.477 5.27797 17.0172 6.53568 16.1124 7.44045C15.2077 8.34522 13.95 8.80497 12.675 8.69699L12.693 8.71599C11.6089 8.60676 10.5331 8.9901 9.76244 9.76022C8.99173 10.5304 8.60758 11.6059 8.71599 12.69L8.69799 12.672C8.80525 13.9468 8.34527 15.2041 7.44067 16.1087C6.53607 17.0133 5.27879 17.4733 4.00399 17.366L4.02199 17.384C2.47827 17.239 1.00942 18.0777 0.349671 19.4809C-0.310077 20.884 -0.0190158 22.5502 1.07737 23.6466C2.17375 24.743 3.83995 25.0341 5.2431 24.3743C6.64626 23.7146 7.48496 22.2457 7.33999 20.702L7.35899 20.72C7.25138 19.4451 7.71124 18.1876 8.61593 17.2829C9.52061 16.3782 10.7781 15.9184 12.053 16.026L12.053 16.026L12.053 16.026L12.053 16.026Z" transform="translate(0.9192806 0.9420855)" id="Shape#1" fill="#FFFFFF" fill-rule="evenodd" stroke="none" />
                  <path d="M6.27027 14.9611C7.03766 14.1892 7.4208 13.1154 7.31527 12.0321L7.33427 12.0501C7.22657 10.7748 7.68669 9.51695 8.59184 8.61219C9.49699 7.70742 10.7551 7.24783 12.0303 7.35608L12.0113 7.33807C13.5545 7.48264 15.0226 6.64401 15.6819 5.2413C16.3413 3.83859 16.0502 2.17305 14.9543 1.07707C13.8583 -0.0189012 12.1927 -0.309948 10.79 0.349401C9.38733 1.00875 8.5487 2.47689 8.69327 4.02007L8.67527 4.00207C8.78289 5.27696 8.32302 6.53445 7.41833 7.43914C6.51365 8.34383 5.25615 8.80369 3.98127 8.69607L3.99927 8.71407C2.30287 8.56194 0.724636 9.59662 0.187621 11.2129C-0.349391 12.8293 0.295875 14.6027 1.74603 15.496C3.19618 16.3893 5.0703 16.1678 6.27227 14.9611L6.27027 14.9611L6.27027 14.9611L6.27027 14.9611Z" id="Shape#2" fill="#FFFFFF" fill-rule="evenodd" stroke="none" />
                  <path d="M0 0L2.97 0L2.97 14.453L0 14.453L0 0L0 0L0 0Z" transform="translate(37.247276 4.9870763)" id="Shape#3" fill="#FFFFFF" fill-rule="evenodd" stroke="none" />
                  <path d="M0.000141144 5.26815C-0.00835037 3.14402 1.26464 1.22434 3.22463 0.405599C5.18461 -0.41315 7.44488 0.0305758 8.94986 1.52955C10.4548 3.02852 10.9076 5.28699 10.0967 7.25024C9.2858 9.21348 7.37123 10.4941 5.24711 10.4942C3.85437 10.51 2.51374 9.96521 1.52688 8.9823C0.540028 7.99938 -0.0101547 6.66094 0.000141144 5.26815L0.000141144 5.26815L0.000141144 5.26815L0.000141144 5.26815ZM7.52414 5.26815C7.48958 4.01869 6.45469 3.03046 5.20497 3.05353C3.95526 3.0766 2.95755 4.10236 2.96912 5.35223C2.98069 6.60211 3.99723 7.60921 5.24715 7.60914C5.86725 7.6257 6.46601 7.38217 6.89853 6.9375C7.33104 6.49283 7.55787 5.88755 7.52414 5.26815L7.52414 5.26815L7.52414 5.26815L7.52414 5.26815Z" transform="translate(41.899136 9.222932)" id="Shape#4" fill="#FFFFFF" fill-rule="evenodd" stroke="none" />
                  <path d="M10.6544 0.28305L10.6544 9.68305C10.6544 13.0091 8.06039 14.4151 5.4274 14.4151C3.53743 14.5565 1.72678 13.6303 0.73539 12.015L3.26939 10.55C3.68796 11.3958 4.5876 11.8929 5.52639 11.7971C6.11988 11.8793 6.71859 11.6874 7.15368 11.2754C7.58877 10.8635 7.8131 10.2762 7.76339 9.67905L7.76339 8.77405C7.05816 9.63698 5.98557 10.1145 4.8724 10.0611C2.15696 9.97541 0 7.74936 0 5.03256C-7.62939e-06 2.31576 2.15694 0.0897017 4.87239 0.00405025C5.98557 -0.0493708 7.05816 0.428119 7.7634 1.29105L7.76339 0.281051L10.6544 0.28305L10.6544 0.28305L10.6544 0.28305ZM7.7644 5.03405C7.80524 4.05482 7.24655 3.14914 6.35311 2.74623C5.45967 2.34332 4.41101 2.52415 3.70411 3.20301C2.99721 3.88187 2.77411 4.92236 3.14054 5.83137C3.50698 6.74038 4.38932 7.33524 5.36941 7.33405C6.00043 7.37809 6.62067 7.15327 7.0769 6.71512C7.53315 6.27697 7.78288 5.66634 7.7644 5.03405L7.7644 5.03405L7.7644 5.03405L7.7644 5.03405Z" transform="translate(53.575882 9.258029)" id="Shape#5" fill="#FFFFFF" fill-rule="evenodd" stroke="none" />
                  <path d="M0.000144958 5.26815C-0.00834656 3.14402 1.26465 1.22434 3.22463 0.405599C5.18462 -0.41315 7.44488 0.0305758 8.94986 1.52955C10.4548 3.02852 10.9076 5.28699 10.0967 7.25024C9.2858 9.21348 7.37124 10.4941 5.24712 10.4942C3.85437 10.51 2.51374 9.96521 1.52689 8.9823C0.540031 7.99938 -0.0101471 6.66094 0.000144958 5.26815L0.000144958 5.26815L0.000144958 5.26815L0.000144958 5.26815ZM7.52415 5.26815C7.48958 4.01869 6.45468 3.03046 5.20497 3.05353C3.95525 3.0766 2.95754 4.10236 2.96912 5.35223C2.98068 6.6021 3.99722 7.60921 5.24715 7.60914C5.86725 7.6257 6.46601 7.38217 6.89852 6.9375C7.33104 6.49284 7.55788 5.88755 7.52414 5.26815L7.52415 5.26815L7.52415 5.26815L7.52415 5.26815Z" transform="translate(65.91213 9.222932)" id="Shape#6" fill="#FFFFFF" fill-rule="evenodd" stroke="none" />
                  <path d="M0 1.78205C0.000244141 1.06068 0.434639 0.411056 1.10062 0.135467C1.76661 -0.140128 2.53303 0.012598 3.0425 0.522425C3.55197 1.03225 3.70416 1.79877 3.42812 2.46456C3.15206 3.13036 2.50214 3.5643 1.78138 3.56405C0.801521 3.55396 0.00975037 2.76191 0 1.78205L0 1.78205L0 1.78205L0 1.78205ZM0.300003 4.43505L3.271 4.43505L3.271 14.3351L0.295998 14.3351L0.300003 4.43505L0.300003 4.43505L0.300003 4.43505Z" transform="translate(77.791275 5.1060243)" id="Shape#7" fill="#FFFFFF" fill-rule="evenodd" stroke="none" />
                  <path d="M10.651 5.23252C10.7203 6.554 10.2599 7.84858 9.37169 8.82951C8.48349 9.81043 7.24084 10.3967 5.91899 10.4585C4.80444 10.5193 3.7216 10.0758 2.97 9.25053L2.97 14.1415L0 14.1415L0 0.282526L2.97 0.282526L2.97 1.21252C3.72195 0.387884 4.80464 -0.055254 5.91899 0.00552559C7.24112 0.0670605 8.48409 0.653418 9.37238 1.63462C10.2607 2.61582 10.7209 3.91081 10.651 5.23252L10.651 5.23252L10.651 5.23252L10.651 5.23252ZM7.681 5.23252C7.64861 3.93939 6.57969 2.91422 5.28632 2.93586C3.99297 2.9575 2.95894 4.01787 2.96983 5.31136C2.98072 6.60486 4.03246 7.64767 5.326 7.64753C5.96957 7.67617 6.59476 7.42881 7.04452 6.96759C7.49427 6.50639 7.72582 5.87516 7.68101 5.23252L7.681 5.23252L7.681 5.23252L7.681 5.23252Z" transform="translate(83.235275 9.258552)" id="Shape#8" fill="#FFFFFF" fill-rule="evenodd" stroke="none" />
                  <path d="M8.37399 7.20818C8.37399 9.48518 6.395 10.4552 4.257 10.4552C2.48951 10.6153 0.802948 9.68187 0 8.09918L2.573 6.63418C2.78748 7.37098 3.48763 7.85775 4.25299 7.80217C4.96499 7.80217 5.32199 7.58417 5.32199 7.18917C5.32199 6.09917 0.450989 6.67418 0.450989 3.24918C0.450989 1.09018 2.27299 0.00217533 4.33199 0.00217533C5.90842 -0.0477133 7.38722 0.763715 8.19199 2.12017L5.65799 3.48618C5.43083 2.95605 4.90873 2.61311 4.33199 2.61517C3.81699 2.61518 3.49999 2.81518 3.49999 3.16918C3.50399 4.29818 8.37399 3.54517 8.37399 7.20818L8.37399 7.20818L8.37399 7.20818L8.37399 7.20818Z" transform="translate(94.677284 9.261903)" id="Shape#9" fill="#FFFFFF" fill-rule="evenodd" stroke="none" />
                  <path d="M9.5 0L9.5 9.9L6.53 9.9L6.53 8.969C5.83505 9.80234 4.78249 10.2516 3.69998 10.177C1.7 10.177 0 8.752 0 6.077L0 0L2.97 0L2.97 5.642C2.91971 6.11924 3.082 6.59441 3.41374 6.94117C3.74547 7.28792 4.213 7.4711 4.69199 7.442C5.78101 7.442 6.533 6.809 6.533 5.403L6.533 0.00299454L9.5 0L9.5 0L9.5 0Z" transform="translate(104.400276 9.541078)" id="Shape#10" fill="#FFFFFF" fill-rule="evenodd" stroke="none" />
                  <path d="M14.849 4.10886L14.849 10.1869L11.879 10.1869L11.879 4.36586C11.879 3.37586 11.404 2.74286 10.454 2.74286C9.46399 2.74286 8.909 3.43586 8.909 4.60386L8.909 10.1869L5.94 10.1869L5.94 4.36586C5.94 3.37586 5.465 2.74286 4.51401 2.74286C3.524 2.74286 2.97 3.43586 2.97 4.60386L2.97 10.1869L0 10.1869L0 0.286862L2.97 0.286862L2.97 1.19686C3.59555 0.37655 4.59453 -0.0704069 5.62302 0.00986195C6.65678 -0.0406981 7.64122 0.455125 8.216 1.31586C8.88495 0.416043 9.96915 -0.0771551 11.087 0.00986195C13.36 0.0108614 14.849 1.63386 14.849 4.10886L14.849 4.10886L14.849 4.10886L14.849 4.10886Z" transform="translate(116.081276 9.253217)" id="Shape#11" fill="#FFFFFF" fill-rule="evenodd" stroke="none" />
                  <path d="M0 2.204C0 0.986764 0.986771 0 2.20399 0C3.42123 0 4.408 0.986764 4.408 2.204C4.408 3.42124 3.42123 4.408 2.20399 4.408C0.986771 4.408 0 3.42124 0 2.204L0 2.204L0 2.204Z" transform="translate(131.23828 5.072079)" id="Circle" fill="#FFFFFF" fill-rule="evenodd" stroke="none" />
                </g>
              </g>
            </g>
          </g>
        </g>
      </g>
    </g>
  </g>
</svg>